<svg width="493.61998291015624px" height="121.61758422851562px" xmlns="http://www.w3.org/2000/svg" viewBox="3.1900085449218807 14.191207885742188 493.61998291015624 121.61758422851562" style="background: rgba(0, 0, 0, 0);" preserveAspectRatio="xMidYMid"><defs>
  <filter id="editing-scratch" x="-100%" y="-100%" width="300%" height="300%">
    <!-- COLOR -->
    <feFlood flood-color="#ddd" flood-opacity="0.75" result="COLOR-blu"></feFlood>
    <feFlood flood-color="#666" flood-opacity="0.4" result="COLOR-red"></feFlood>
    <!-- COLOR END -->

    <!-- Texture -->
    <feTurbulence baseFrequency=".05" type="fractalNoise" numOctaves="3" seed="0" result="Texture_10"></feTurbulence>
    <feColorMatrix type="matrix" values="0 0 0 0 0,
    0 0 0 0 0,
    0 0 0 0 0,
    0 0 0 -2.1 1.1" in="Texture_10" result="Texture_20"></feColorMatrix>

    <feColorMatrix result="Texture_30" type="matrix" values="0 0 0 0 0,
    0 0 0 0 0,
    0 0 0 0 0,
    0 0 0 -1.7 1.8" in="Texture_10"></feColorMatrix>
    <!-- Texture -->

    <!-- FILL -->
    <feOffset dx="-3" dy="4" in="SourceAlpha" result="FILL_10"></feOffset>
    <feDisplacementMap scale="17" in="FILL_10" in2="Texture_10" result="FILL_20"></feDisplacementMap>
    <feComposite operator="in" in="Texture_30" in2="FILL_20" result="FILL_40"></feComposite>
    <feComposite operator="in" in="COLOR-blu" in2="FILL_40" result="FILL_50"></feComposite>
    <!-- FILL END-->

    <!-- OUTLINE -->
    <feMorphology operator="dilate" radius="3" in="SourceGraphic" result="OUTLINE_10"></feMorphology>
    <feComposite operator="out" in="OUTLINE_10" in2="SourceGraphic" result="OUTLINE_20"></feComposite>
    <feDisplacementMap scale="7" in="OUTLINE_20" in2="Texture_10" result="OUTLINE_30"></feDisplacementMap>
    <feComposite operator="arithmetic" k2="-1" k3="1" in="Texture_20" in2="OUTLINE_30" result="OUTLINE_40"></feComposite>
    <!-- OUTLINE END-->

    <!-- BEVEL OUTLINE -->
    <feConvolveMatrix order="8,8" divisor="1" kernelMatrix="1 0 0 0 0 0 0 0 0 1 0 0 0 0 0 0 0 0 1 0 0 0 0 0 0 0 0 1 0 0 0 0 0 0 0 0 1 0 0 0 0 0 0 0 0 1 0 0 0 0 0 0 0 0 1 0 0 0 0 0 0 0 0 1 " in="SourceGraphic" result="BEVEL_10"></feConvolveMatrix>
    <feMorphology operator="dilate" radius="2" in="BEVEL_10" result="BEVEL_20"></feMorphology>
    <feComposite operator="out" in="BEVEL_20" in2="BEVEL_10" result="BEVEL_30"></feComposite>
    <feDisplacementMap scale="7" in="BEVEL_30" in2="Texture_10" result="BEVEL_40"></feDisplacementMap>
    <feComposite operator="arithmetic" k2="-1" k3="1" in="Texture_20" in2="BEVEL_40" result="BEVEL_50"></feComposite>
    <feOffset dx="-7" dy="-7" in="BEVEL_50" result="BEVEL_60"></feOffset>
    <feComposite operator="out" in="BEVEL_60" in2="OUTLINE_10" result="BEVEL_70"></feComposite>
    <!-- BEVEL OUTLINE END -->

    <!-- BEVEL FILL -->
    <feOffset dx="-9" dy="-9" in="BEVEL_10" result="BEVEL-FILL_10"></feOffset>
    <feComposite operator="out" in="BEVEL-FILL_10" in2="OUTLINE_10" result="BEVEL-FILL_20"></feComposite>
    <feDisplacementMap scale="17" in="BEVEL-FILL_20" in2="Texture_10" result="BEVEL-FILL_30"></feDisplacementMap>
    <feComposite operator="in" in="COLOR-red" in2="BEVEL-FILL_30" result="BEVEL-FILL_50"></feComposite> <!-- -->
    <!-- BEVEL FILL END-->

    <feMerge result="merge2">
     <feMergeNode in="BEVEL-FILL_50"></feMergeNode>
     <feMergeNode in="BEVEL_70"></feMergeNode>
     <feMergeNode in="FILL_50"></feMergeNode>
      <feMergeNode in="OUTLINE_40"></feMergeNode>
    </feMerge>
  </filter>
</defs>
<g filter="url(#editing-scratch)"><g transform="translate(76.46000123023987, 104.76000022888184)"><path d="M0.26-3.07L0.26-3.07L8.19-44.80L21.18-46.08L19.20-36.29L19.20-36.29Q18.50-33.28 17.60-31.17L17.60-31.17L17.60-31.17Q19.01-32.96 22.08-33.66L22.08-33.66L22.08-33.66Q22.98-33.92 24.06-33.92L24.06-33.92L24.06-33.92Q30.02-33.92 33.28-30.30L33.28-30.30L33.28-30.30Q36.54-26.69 36.54-19.71L36.54-19.71L36.54-19.71Q36.54-10.62 31.36-4.93L31.36-4.93L31.36-4.93Q25.79 1.28 15.68 1.28L15.68 1.28L15.68 1.28Q8.70 1.28 3.46-1.02L3.46-1.02L3.46-1.02Q1.60-1.86 0.26-3.07ZM16.51-22.40L13.12-3.65L13.12-3.65Q14.46-2.50 16.13-2.50L16.13-2.50L16.13-2.50Q17.79-2.50 18.75-3.14L18.75-3.14L18.75-3.14Q19.71-3.78 20.42-5.06L20.42-5.06L20.42-5.06Q22.34-8.51 23.87-19.07L23.87-19.07L23.87-19.07Q24.32-22.08 24.32-25.09L24.32-25.09L24.32-25.09Q24.32-28.10 23.65-29.06L23.65-29.06L23.65-29.06Q22.98-30.02 21.70-30.02L21.70-30.02L21.70-30.02Q17.79-30.02 16.51-22.40L16.51-22.40ZM54.34 1.28L54.34 1.28L54.34 1.28Q40.26 1.28 40.26-11.97L40.26-11.97L40.26-11.97Q40.26-21.38 45.44-27.46L45.44-27.46L45.44-27.46Q50.94-33.92 60.48-33.92L60.48-33.92L60.48-33.92Q67.39-33.92 70.91-30.72L70.91-30.72L70.91-30.72Q74.43-27.52 74.43-20.80L74.43-20.80L74.43-20.80Q74.43-10.56 68.93-4.61L68.93-4.61L68.93-4.61Q63.55 1.28 54.34 1.28ZM56-26.56L56-26.56L56-26.56Q55.23-24.83 54.62-22.24L54.62-22.24L54.62-22.24Q54.02-19.65 53.25-15.55L53.25-15.55L53.25-15.55Q52.48-11.46 52.48-6.40L52.48-6.40L52.48-6.40Q52.48-4.74 53.02-3.65L53.02-3.65L53.02-3.65Q53.57-2.56 55.04-2.56L55.04-2.56L55.04-2.56Q56.51-2.56 57.44-3.26L57.44-3.26L57.44-3.26Q58.37-3.97 59.07-5.63L59.07-5.63L59.07-5.63Q60.35-8.58 61.38-14.05L61.38-14.05L61.38-14.05Q62.40-19.52 62.50-21.89L62.50-21.89L62.50-21.89Q62.59-24.26 62.59-26.02L62.59-26.02L62.59-26.02Q62.59-27.78 62.08-28.93L62.08-28.93L62.08-28.93Q61.57-30.08 60.13-30.08L60.13-30.08L60.13-30.08Q58.69-30.08 57.73-29.18L57.73-29.18L57.73-29.18Q56.77-28.29 56-26.56ZM77.38-3.07L77.38-3.07L85.31-44.80L98.30-46.08L96.32-36.29L96.32-36.29Q95.62-33.28 94.72-31.17L94.72-31.17L94.72-31.17Q96.13-32.96 99.20-33.66L99.20-33.66L99.20-33.66Q100.10-33.92 101.18-33.92L101.18-33.92L101.18-33.92Q107.14-33.92 110.40-30.30L110.40-30.30L110.40-30.30Q113.66-26.69 113.66-19.71L113.66-19.71L113.66-19.71Q113.66-10.62 108.48-4.93L108.48-4.93L108.48-4.93Q102.91 1.28 92.80 1.28L92.80 1.28L92.80 1.28Q85.82 1.28 80.58-1.02L80.58-1.02L80.58-1.02Q78.72-1.86 77.38-3.07ZM93.63-22.40L90.24-3.65L90.24-3.65Q91.58-2.50 93.25-2.50L93.25-2.50L93.25-2.50Q94.91-2.50 95.87-3.14L95.87-3.14L95.87-3.14Q96.83-3.78 97.54-5.06L97.54-5.06L97.54-5.06Q99.46-8.51 100.99-19.07L100.99-19.07L100.99-19.07Q101.44-22.08 101.44-25.09L101.44-25.09L101.44-25.09Q101.44-28.10 100.77-29.06L100.77-29.06L100.77-29.06Q100.10-30.02 98.82-30.02L98.82-30.02L98.82-30.02Q94.91-30.02 93.63-22.40L93.63-22.40ZM131.46 1.28L131.46 1.28L131.46 1.28Q117.38 1.28 117.38-11.97L117.38-11.97L117.38-11.97Q117.38-21.38 122.56-27.46L122.56-27.46L122.56-27.46Q128.06-33.92 137.60-33.92L137.60-33.92L137.60-33.92Q144.51-33.92 148.03-30.72L148.03-30.72L148.03-30.72Q151.55-27.52 151.55-20.80L151.55-20.80L151.55-20.80Q151.55-10.56 146.05-4.61L146.05-4.61L146.05-4.61Q140.67 1.28 131.46 1.28ZM133.12-26.56L133.12-26.56L133.12-26.56Q132.35-24.83 131.74-22.24L131.74-22.24L131.74-22.24Q131.14-19.65 130.37-15.55L130.37-15.55L130.37-15.55Q129.60-11.46 129.60-6.40L129.60-6.40L129.60-6.40Q129.60-4.74 130.14-3.65L130.14-3.65L130.14-3.65Q130.69-2.56 132.16-2.56L132.16-2.56L132.16-2.56Q133.63-2.56 134.56-3.26L134.56-3.26L134.56-3.26Q135.49-3.97 136.19-5.63L136.19-5.63L136.19-5.63Q137.47-8.58 138.50-14.05L138.50-14.05L138.50-14.05Q139.52-19.52 139.62-21.89L139.62-21.89L139.62-21.89Q139.71-24.26 139.71-26.02L139.71-26.02L139.71-26.02Q139.71-27.78 139.20-28.93L139.20-28.93L139.20-28.93Q138.69-30.08 137.25-30.08L137.25-30.08L137.25-30.08Q135.81-30.08 134.85-29.18L134.85-29.18L134.85-29.18Q133.89-28.29 133.12-26.56ZM164.48-29.50L157.70-29.50L157.70-29.50Q160.06-37.70 160.19-46.34L160.19-46.34L162.05-46.59L162.05-46.59Q163.01-46.72 163.71-46.72L163.71-46.72L163.71-46.72Q166.53-46.72 168.06-45.34L168.06-45.34L168.06-45.34Q169.60-43.97 169.60-41.54L169.60-41.54L169.60-41.54Q169.60-38.98 168.45-36.16L168.45-36.16L168.45-36.16Q166.40-31.17 164.48-29.50L164.48-29.50ZM187.97-22.46L187.97-22.46L187.97-22.46Q188.86-24.83 188.86-26.88L188.86-26.88L188.86-26.88Q188.86-30.66 185.79-30.66L185.79-30.66L185.79-30.66Q184.19-30.66 182.88-29.22L182.88-29.22L182.88-29.22Q181.57-27.78 181.57-25.98L181.57-25.98L181.57-25.98Q181.57-24.70 182.59-23.68L182.59-23.68L182.59-23.68Q184.06-22.27 187.84-19.97L187.84-19.97L187.84-19.97Q191.62-17.66 193.06-15.78L193.06-15.78L193.06-15.78Q194.50-13.89 194.50-11.30L194.50-11.30L194.50-11.30Q194.50-8.70 193.25-6.34L193.25-6.34L193.25-6.34Q192-3.97 189.76-2.30L189.76-2.30L189.76-2.30Q184.96 1.28 177.28 1.28L177.28 1.28L177.28 1.28Q173.12 1.28 169.92-0.90L169.92-0.90L169.92-0.90Q166.72-3.01 166.72-5.50L166.72-5.50L166.72-5.50Q166.72-8 168.54-9.47L168.54-9.47L168.54-9.47Q170.37-10.94 173.06-10.94L173.06-10.94L173.06-10.94Q175.74-10.94 177.41-9.92L177.41-9.92L177.41-9.92Q176.58-7.81 176.58-6.40L176.58-6.40L176.58-6.40Q176.58-2.18 180.16-2.18L180.16-2.18L180.16-2.18Q181.70-2.18 182.72-3.14L182.72-3.14L182.72-3.14Q183.74-4.10 183.74-5.76L183.74-5.76L183.74-5.76Q183.74-9.02 178.24-12.48L178.24-12.48L178.24-12.48Q173.76-15.42 172.74-16.58L172.74-16.58L172.74-16.58Q171.01-18.62 171.01-21.18L171.01-21.18L171.01-21.18Q171.01-23.74 172.22-26.18L172.22-26.18L172.22-26.18Q173.44-28.61 175.68-30.34L175.68-30.34L175.68-30.34Q180.35-33.92 188.48-33.92L188.48-33.92L188.48-33.92Q192.64-33.92 195.10-32.26L195.10-32.26L195.10-32.26Q197.57-30.59 197.57-27.78L197.57-27.78L197.57-27.78Q197.57-24.96 195.87-23.36L195.87-23.36L195.87-23.36Q194.18-21.76 191.10-21.76L191.10-21.76L191.10-21.76Q188.99-21.76 187.97-22.46ZM212.29-3.07L212.29-3.07L220.22-44.80L233.22-46.08L231.23-36.29L231.23-36.29Q230.53-33.28 229.63-31.17L229.63-31.17L229.63-31.17Q231.04-32.96 234.11-33.66L234.11-33.66L234.11-33.66Q235.01-33.92 236.10-33.92L236.10-33.92L236.10-33.92Q242.05-33.92 245.31-30.30L245.31-30.30L245.31-30.30Q248.58-26.69 248.58-19.71L248.58-19.71L248.58-19.71Q248.58-10.62 243.39-4.93L243.39-4.93L243.39-4.93Q237.82 1.28 227.71 1.28L227.71 1.28L227.71 1.28Q220.74 1.28 215.49-1.02L215.49-1.02L215.49-1.02Q213.63-1.86 212.29-3.07ZM228.54-22.40L225.15-3.65L225.15-3.65Q226.50-2.50 228.16-2.50L228.16-2.50L228.16-2.50Q229.82-2.50 230.78-3.14L230.78-3.14L230.78-3.14Q231.74-3.78 232.45-5.06L232.45-5.06L232.45-5.06Q234.37-8.51 235.90-19.07L235.90-19.07L235.90-19.07Q236.35-22.08 236.35-25.09L236.35-25.09L236.35-25.09Q236.35-28.10 235.68-29.06L235.68-29.06L235.68-29.06Q235.01-30.02 233.73-30.02L233.73-30.02L233.73-30.02Q229.82-30.02 228.54-22.40L228.54-22.40ZM267.71-3.52L267.71-3.52L267.71-3.52Q265.73 1.28 259.39 1.28L259.39 1.28L259.39 1.28Q256.19 1.28 254.14-0.96L254.14-0.96L254.14-0.96Q252.48-2.82 252.48-4.93L252.48-4.93L252.48-4.93Q252.48-9.73 254.72-20.22L254.72-20.22L259.39-44.80L272.38-46.08L266.18-13.70L266.18-13.70Q265.09-8.96 265.09-7.30L265.09-7.30L265.09-7.30Q265.09-3.65 267.71-3.52ZM287.10 1.28L287.10 1.28L287.10 1.28Q273.02 1.28 273.02-11.97L273.02-11.97L273.02-11.97Q273.02-21.38 278.21-27.46L278.21-27.46L278.21-27.46Q283.71-33.92 293.25-33.92L293.25-33.92L293.25-33.92Q300.16-33.92 303.68-30.72L303.68-30.72L303.68-30.72Q307.20-27.52 307.20-20.80L307.20-20.80L307.20-20.80Q307.20-10.56 301.70-4.61L301.70-4.61L301.70-4.61Q296.32 1.28 287.10 1.28ZM288.77-26.56L288.77-26.56L288.77-26.56Q288-24.83 287.39-22.24L287.39-22.24L287.39-22.24Q286.78-19.65 286.02-15.55L286.02-15.55L286.02-15.55Q285.25-11.46 285.25-6.40L285.25-6.40L285.25-6.40Q285.25-4.74 285.79-3.65L285.79-3.65L285.79-3.65Q286.34-2.56 287.81-2.56L287.81-2.56L287.81-2.56Q289.28-2.56 290.21-3.26L290.21-3.26L290.21-3.26Q291.14-3.97 291.84-5.63L291.84-5.63L291.84-5.63Q293.12-8.58 294.14-14.05L294.14-14.05L294.14-14.05Q295.17-19.52 295.26-21.89L295.26-21.89L295.26-21.89Q295.36-24.26 295.36-26.02L295.36-26.02L295.36-26.02Q295.36-27.78 294.85-28.93L294.85-28.93L294.85-28.93Q294.34-30.08 292.90-30.08L292.90-30.08L292.90-30.08Q291.46-30.08 290.50-29.18L290.50-29.18L290.50-29.18Q289.54-28.29 288.77-26.56ZM315.52-26.75L315.52-26.75L315.52-26.75Q317.70-29.82 320.99-31.87L320.99-31.87L320.99-31.87Q324.29-33.92 328.32-33.92L328.32-33.92L328.32-33.92Q332.35-33.92 334.27-32.64L334.27-32.64L346.82-33.92L342.46-9.34L342.46-9.34Q340.22 3.20 335.49 8.13L335.49 8.13L335.49 8.13Q330.94 12.80 322.11 12.80L322.11 12.80L322.11 12.80Q315.39 12.80 311.55 10.69L311.55 10.69L311.55 10.69Q307.71 8.58 307.71 5.06L307.71 5.06L307.71 5.06Q307.71 2.43 309.70 0.93L309.70 0.93L309.70 0.93Q311.68-0.58 314.75-0.58L314.75-0.58L314.75-0.58Q317.44-0.58 319.49 0.64L319.49 0.64L319.49 0.64Q320.70 1.28 321.28 2.18L321.28 2.18L321.28 2.18Q319.81 3.46 319.81 5.57L319.81 5.57L319.81 5.57Q319.81 8.32 322.37 8.32L322.37 8.32L322.37 8.32Q326.66 8.32 329.09-1.79L329.09-1.79L329.09-1.79Q329.79-4.54 330.37-7.30L330.37-7.30L330.37-7.30Q327.49-3.78 320.96-3.78L320.96-3.78L320.96-3.78Q316.42-3.78 313.79-5.95L313.79-5.95L313.79-5.95Q311.17-8.13 311.17-13.25L311.17-13.25L311.17-13.25Q311.17-16.45 312.26-20.06L312.26-20.06L312.26-20.06Q313.34-23.68 315.52-26.75ZM323.84-13.06L323.84-13.06L323.84-13.06Q323.84-8.70 326.08-8.70L326.08-8.70L326.08-8.70Q327.62-8.70 329.09-10.37L329.09-10.37L329.09-10.37Q330.24-11.71 330.69-13.70L330.69-13.70L333.95-30.14L333.95-30.14Q333.63-30.21 333.31-30.34L333.31-30.34L333.31-30.34Q332.67-30.59 331.84-30.59L331.84-30.59L331.84-30.59Q327.94-30.59 325.63-24.19L325.63-24.19L325.63-24.19Q323.84-19.20 323.84-13.06Z" fill="#000"></path></g></g><style>text {
  font-size: 64px;
  font-family: Arial Black;
  dominant-baseline: central;
  text-anchor: middle;
}</style></svg>